<svg width="1638" height="400" viewBox="0 0 1638 400" fill="none" xmlns="http://www.w3.org/2000/svg">
<circle cx="207" cy="200" r="167" fill="#EFECCD" stroke="#003724" stroke-width="1.6575"/>
<ellipse cx="207" cy="200" rx="154.829" ry="154.829" fill="url(#paint0_radial_923_8083)" stroke="#003724" stroke-width="4.55812"/>
<mask id="mask0_923_8083" style="mask-type:alpha" maskUnits="userSpaceOnUse" x="52" y="45" width="310" height="310">
<ellipse cx="207.001" cy="200" rx="154.829" ry="154.829" fill="#E6E4C8"/>
</mask>
<g mask="url(#mask0_923_8083)">
<line x1="39.8469" y1="55.8794" x2="374.04" y2="55.8794" stroke="#003724" stroke-width="1.6575"/>
<line x1="39.8469" y1="64.836" x2="374.04" y2="64.836" stroke="#003724" stroke-width="1.6575"/>
<line x1="39.8469" y1="73.7906" x2="374.04" y2="73.7906" stroke="#003724" stroke-width="1.6575"/>
<line x1="39.8469" y1="82.7483" x2="374.04" y2="82.7483" stroke="#003724" stroke-width="1.6575"/>
<line x1="39.8469" y1="91.7018" x2="374.04" y2="91.7018" stroke="#003724" stroke-width="1.6575"/>
<line x1="39.8469" y1="109.615" x2="374.04" y2="109.615" stroke="#003724" stroke-width="1.6575"/>
<line x1="39.8469" y1="127.527" x2="374.04" y2="127.527" stroke="#003724" stroke-width="1.6575"/>
<line x1="39.8469" y1="100.658" x2="374.04" y2="100.658" stroke="#003724" stroke-width="1.6575"/>
<line x1="39.8469" y1="118.569" x2="374.04" y2="118.569" stroke="#003724" stroke-width="1.6575"/>
<line x1="39.8469" y1="136.482" x2="374.04" y2="136.482" stroke="#003724" stroke-width="1.6575"/>
<line x1="39.8469" y1="145.435" x2="374.04" y2="145.435" stroke="#003724" stroke-width="1.6575"/>
<line x1="39.8469" y1="154.394" x2="374.04" y2="154.394" stroke="#003724" stroke-width="1.6575"/>
<line x1="39.8469" y1="163.348" x2="374.04" y2="163.348" stroke="#003724" stroke-width="1.6575"/>
<line x1="39.8469" y1="172.301" x2="374.04" y2="172.301" stroke="#003724" stroke-width="1.6575"/>
<line x1="39.8469" y1="181.261" x2="374.04" y2="181.261" stroke="#003724" stroke-width="1.6575"/>
<line x1="39.8469" y1="190.214" x2="374.04" y2="190.214" stroke="#003724" stroke-width="1.6575"/>
<line x1="39.8469" y1="199.172" x2="374.04" y2="199.172" stroke="#003724" stroke-width="1.6575"/>
<line x1="39.8469" y1="208.127" x2="374.04" y2="208.127" stroke="#003724" stroke-width="1.6575"/>
<line x1="39.8469" y1="217.08" x2="374.04" y2="217.08" stroke="#003724" stroke-width="1.6575"/>
<line x1="39.8469" y1="226.039" x2="374.04" y2="226.039" stroke="#003724" stroke-width="1.6575"/>
<line x1="39.8469" y1="234.994" x2="374.04" y2="234.994" stroke="#003724" stroke-width="1.6575"/>
<line x1="39.8469" y1="243.947" x2="374.04" y2="243.947" stroke="#003724" stroke-width="1.6575"/>
<line x1="39.8469" y1="252.905" x2="374.04" y2="252.905" stroke="#003724" stroke-width="1.6575"/>
<line x1="39.8469" y1="324.55" x2="374.04" y2="324.55" stroke="#003724" stroke-width="1.6575"/>
<line x1="39.8469" y1="261.861" x2="374.04" y2="261.861" stroke="#003724" stroke-width="1.6575"/>
<line x1="39.8469" y1="288.727" x2="374.04" y2="288.727" stroke="#003724" stroke-width="1.6575"/>
<line x1="39.8469" y1="297.68" x2="374.04" y2="297.68" stroke="#003724" stroke-width="1.6575"/>
<line x1="39.8469" y1="306.637" x2="374.04" y2="306.637" stroke="#003724" stroke-width="1.6575"/>
<line x1="39.8469" y1="270.812" x2="374.04" y2="270.812" stroke="#003724" stroke-width="1.6575"/>
<line x1="39.8469" y1="333.504" x2="374.04" y2="333.504" stroke="#003724" stroke-width="1.6575"/>
<line x1="39.8469" y1="279.771" x2="374.04" y2="279.771" stroke="#003724" stroke-width="1.6575"/>
<line x1="39.8469" y1="315.592" x2="374.04" y2="315.592" stroke="#003724" stroke-width="1.6575"/>
<line x1="39.8469" y1="342.458" x2="374.04" y2="342.458" stroke="#003724" stroke-width="1.6575"/>
</g>
<path d="M229.035 47.3224V78.7648C247.958 79.9458 263.494 85.4766 274.679 94.421C286.018 103.488 292.8 115.997 294.103 130.763L294.161 131.468L294.162 131.482L294.163 131.494C294.598 138.794 291.811 143.507 287.612 146.298C283.546 149 278.356 149.772 274.081 149.772C268.446 149.772 262.532 148.528 257.604 144.378C252.679 140.231 248.977 133.382 247.347 122.659L242.472 97.0665C238.075 96.0937 233.846 95.5608 229.035 95.462V176.498C252.027 184.808 271.588 193.143 285.453 204.778C299.65 216.693 307.841 232.037 307.841 254.084C307.841 272.654 298.374 288.546 283.371 300.299C268.714 311.78 248.719 319.37 226.81 321.804V352.172H208.88V322.585C189.087 322.254 172.938 318.463 160.866 311.479C148.416 304.276 140.363 293.71 137.173 280.26C136.217 276.225 135.932 271.552 136.913 267.268C137.899 262.96 140.196 258.95 144.458 256.524C148.596 254.168 153.604 253.526 157.798 253.526C164.511 253.526 169.537 255.712 173.252 259.39C176.92 263.019 179.187 267.979 180.674 273.335C182.164 278.7 182.909 284.606 183.433 290.246C183.922 295.503 184.215 300.438 184.722 304.708C191.805 306.6 199.467 307.723 208.88 307.841V226.733C191.961 219.621 173.56 210.332 159.275 197.6C144.67 184.582 134.28 167.88 134.28 146.208C134.28 110.81 166.572 82.8609 210.469 79.1173V47.3224H229.035ZM226.81 305.359C242.992 299.943 253.042 286.106 253.042 269.162C253.042 258.894 251.102 252.682 246.784 247.777C242.689 243.127 236.333 239.488 226.81 234.925V305.359ZM210.469 97.59C194.591 102.688 184.555 115.958 184.555 133.499C184.555 142.889 186.853 149.722 191.408 155.285C195.634 160.447 201.907 164.643 210.469 168.711V97.59Z" fill="#003724" stroke="#003724" stroke-width="3.315"/>
<path d="M219.81 41.6456V73.088C238.734 74.2691 254.269 79.7999 265.455 88.7443C276.794 97.8116 283.576 110.321 284.879 125.086L284.936 125.791L284.937 125.805L284.938 125.818C285.374 133.117 282.587 137.83 278.387 140.621C274.321 143.324 269.132 144.095 264.856 144.095C259.222 144.095 253.307 142.851 248.38 138.701C243.455 134.554 239.753 127.706 238.123 116.983L233.248 91.3898C228.85 90.417 224.622 89.884 219.81 89.7853V170.821C242.802 179.131 262.364 187.466 276.228 199.102C290.426 211.017 298.617 226.36 298.617 248.407C298.617 266.977 289.15 282.869 274.146 294.622C259.49 306.103 239.495 313.693 217.586 316.127V346.495H199.656V316.908C179.863 316.577 163.714 312.786 151.641 305.802C139.192 298.6 131.139 288.033 127.949 274.583C126.992 270.549 126.707 265.876 127.688 261.591C128.675 257.284 130.972 253.273 135.234 250.847C139.372 248.492 144.38 247.849 148.574 247.849C155.286 247.849 160.313 250.036 164.028 253.713C167.695 257.343 169.963 262.302 171.45 267.658C172.94 273.023 173.684 278.929 174.209 284.569C174.697 289.827 174.99 294.761 175.498 299.031C182.581 300.923 190.242 302.046 199.656 302.164V221.056C182.736 213.945 164.336 204.655 150.051 191.923C135.445 178.905 125.055 162.203 125.055 140.531C125.055 105.133 157.347 77.1841 201.245 73.4406V41.6456H219.81ZM217.586 299.683C233.767 294.267 243.818 280.429 243.818 263.485C243.818 253.217 241.877 247.005 237.559 242.101C233.465 237.45 227.109 233.811 217.586 229.248V299.683ZM201.245 91.9132C185.366 97.0115 175.331 110.281 175.331 127.822C175.331 137.212 177.628 144.046 182.183 149.609C186.409 154.77 192.683 158.966 201.245 163.034V91.9132Z" fill="#EFECCD" stroke="#003724" stroke-width="3.315"/>
<path d="M198.717 83.0018C178.919 89.2293 166.069 106.057 166.069 127.826C166.069 180.946 238.963 179.922 270.274 206.199C282.433 216.403 289.356 229.176 289.356 248.411C289.356 263.522 281.728 276.921 268.435 287.335C257.972 295.531 244.168 301.699 228.553 305.003C251.274 292.761 262.903 256.876 244.51 235.984C234.382 224.48 217.895 219.17 204.238 212.939C173.353 200.07 134.315 178.993 134.315 140.534C134.315 112.436 159.609 87.5394 198.717 83.0018Z" fill="url(#paint1_linear_923_8083)"/>
<path d="M148.573 257.112C156.691 257.112 160.522 262.922 162.526 270.139C165.437 280.621 165.177 291.658 166.589 302.376C151.518 296.982 137.812 285.682 136.155 268.871C136.155 261.323 142.752 257.112 148.573 257.112Z" fill="url(#paint2_linear_923_8083)"/>
<path d="M241.743 86.4998C255.936 91.2393 268.588 100.892 273.503 115.483C276.238 123.603 276.484 134.837 264.856 134.837C244.414 134.837 244.459 100.759 241.743 86.4998Z" fill="url(#paint3_linear_923_8083)"/>
<path d="M198.717 83.0018C178.919 89.2293 166.069 106.057 166.069 127.826C166.069 180.946 238.963 179.922 270.274 206.199C282.433 216.403 289.356 229.176 289.356 248.411C289.356 263.522 281.728 276.921 268.435 287.335C257.972 295.531 244.168 301.699 228.553 305.003C251.274 292.761 262.903 256.876 244.51 235.984C234.382 224.48 217.895 219.17 204.238 212.939C173.353 200.07 134.315 178.993 134.315 140.534C134.315 112.436 159.609 87.5394 198.717 83.0018Z" stroke="#003724" stroke-width="1.24312" stroke-linejoin="round"/>
<path d="M148.573 257.112C156.691 257.112 160.522 262.922 162.526 270.139C165.437 280.621 165.177 291.658 166.589 302.376C151.518 296.982 137.812 285.682 136.155 268.871C136.155 261.323 142.752 257.112 148.573 257.112Z" stroke="#003724" stroke-width="1.24312" stroke-linejoin="round"/>
<path d="M241.743 86.4998C255.936 91.2393 268.588 100.892 273.503 115.483C276.238 123.603 276.484 134.837 264.856 134.837C244.414 134.837 244.459 100.759 241.743 86.4998Z" stroke="#003724" stroke-width="1.24312" stroke-linejoin="round"/>
<path d="M1402.04 280.748V254.222H1423.12V147.207H1402.04V120.682H1468.02C1489.56 120.682 1505.9 126.17 1517.05 137.146C1528.35 147.969 1534 164.128 1534 185.623V215.807C1534 237.301 1528.35 253.536 1517.05 264.512C1505.9 275.336 1489.56 280.748 1468.02 280.748H1402.04ZM1453.36 253.308H1468.48C1480.7 253.308 1489.63 250.106 1495.28 243.704C1500.93 237.301 1503.76 228.307 1503.76 216.721V184.708C1503.76 172.97 1500.93 163.976 1495.28 157.726C1489.63 151.323 1480.7 148.122 1468.48 148.122H1453.36V253.308Z" fill="#406C4B"/>
<path d="M1324.26 283.949C1311.89 283.949 1300.97 281.738 1291.5 277.317C1282.03 272.897 1274.62 266.57 1269.28 258.338C1263.93 250.106 1261.26 240.197 1261.26 228.612V222.209H1291.04V228.612C1291.04 238.216 1294.02 245.457 1299.98 250.335C1305.93 255.061 1314.03 257.424 1324.26 257.424C1334.64 257.424 1342.36 255.366 1347.4 251.25C1352.59 247.134 1355.19 241.874 1355.19 235.472C1355.19 231.051 1353.89 227.468 1351.29 224.724C1348.85 221.98 1345.18 219.77 1340.3 218.093C1335.56 216.264 1329.76 214.587 1322.88 213.063L1317.62 211.919C1306.62 209.48 1297.15 206.431 1289.21 202.773C1281.42 198.962 1275.39 194.007 1271.11 187.909C1266.99 181.812 1264.92 173.885 1264.92 164.128C1264.92 154.372 1267.22 146.064 1271.8 139.204C1276.53 132.191 1283.1 126.856 1291.5 123.197C1300.05 119.386 1310.06 117.48 1321.51 117.48C1332.96 117.48 1343.12 119.462 1351.98 123.426C1360.99 127.237 1368.02 133.03 1373.06 140.804C1378.25 148.426 1380.84 158.03 1380.84 169.616V176.476H1351.06V169.616C1351.06 163.518 1349.84 158.64 1347.4 154.982C1345.11 151.17 1341.75 148.426 1337.32 146.75C1332.89 144.92 1327.62 144.006 1321.51 144.006C1312.35 144.006 1305.55 145.759 1301.12 149.265C1296.84 152.619 1294.71 157.268 1294.71 163.214C1294.71 167.177 1295.7 170.531 1297.68 173.275C1299.82 176.019 1302.95 178.305 1307.08 180.135C1311.2 181.964 1316.47 183.565 1322.88 184.937L1328.15 186.08C1339.61 188.519 1349.54 191.644 1357.94 195.455C1366.49 199.266 1373.13 204.297 1377.87 210.547C1382.6 216.797 1384.97 224.801 1384.97 234.557C1384.97 244.313 1382.45 252.926 1377.41 260.396C1372.52 267.714 1365.5 273.506 1356.33 277.775C1347.32 281.891 1336.63 283.949 1324.26 283.949Z" fill="#406C4B"/>
<path d="M1176.52 283.949C1163.39 283.949 1152.09 281.586 1142.62 276.86C1133.3 271.982 1126.12 265.122 1121.08 256.28C1116.2 247.286 1113.75 236.691 1113.75 224.496V120.682H1143.99V225.411C1143.99 235.167 1146.74 242.865 1152.24 248.506C1157.89 254.146 1165.99 256.966 1176.52 256.966C1187.06 256.966 1195.08 254.146 1200.58 248.506C1206.23 242.865 1209.06 235.167 1209.06 225.411V120.682H1239.3V224.496C1239.3 236.691 1236.78 247.286 1231.74 256.28C1226.85 265.122 1219.67 271.982 1210.2 276.86C1200.88 281.586 1189.66 283.949 1176.52 283.949Z" fill="#406C4B"/>
<path d="M928.622 326.481V301.327H990.476C994.753 301.327 996.891 299.041 996.891 294.467V265.884H992.767C991.545 268.476 989.636 271.067 987.04 273.659C984.444 276.25 980.931 278.385 976.502 280.061C972.073 281.738 966.422 282.577 959.549 282.577C950.691 282.577 942.902 280.595 936.182 276.631C929.615 272.516 924.498 266.875 920.833 259.71C917.167 252.545 915.335 244.313 915.335 235.014V167.33H944.2V232.728C944.2 241.265 946.262 247.667 950.386 251.936C954.662 256.204 960.695 258.338 968.484 258.338C977.342 258.338 984.215 255.442 989.102 249.649C993.989 243.704 996.433 235.472 996.433 224.953V167.33H1025.3V300.87C1025.3 308.645 1023.01 314.819 1018.43 319.392C1013.84 324.118 1007.73 326.481 1000.1 326.481H928.622Z" fill="#406C4B"/>
<path d="M855.3 280.747C847.817 280.747 841.708 278.461 836.973 273.887C832.391 269.162 830.1 262.911 830.1 255.137V191.111H801.693V167.329H830.1V132.115H858.966V167.329H890.122V191.111H858.966V250.106C858.966 254.68 861.104 256.966 865.38 256.966H887.373V280.747H855.3Z" fill="#406C4B"/>
<path d="M750.921 280.747V167.329H779.787V280.747H750.921ZM765.354 154.067C760.161 154.067 755.732 152.39 752.067 149.036C748.554 145.683 746.798 141.262 746.798 135.774C746.798 130.286 748.554 125.865 752.067 122.511C755.732 119.157 760.161 117.48 765.354 117.48C770.7 117.48 775.129 119.157 778.641 122.511C782.154 125.865 783.91 130.286 783.91 135.774C783.91 141.262 782.154 145.683 778.641 149.036C775.129 152.39 770.7 154.067 765.354 154.067Z" fill="#406C4B"/>
<path d="M609.753 280.747V167.33H638.16V182.193H642.284C644.117 178.229 647.553 174.494 652.593 170.988C657.633 167.33 665.269 165.5 675.502 165.5C684.36 165.5 692.073 167.558 698.64 171.674C705.36 175.638 710.553 181.202 714.218 188.367C717.884 195.379 719.717 203.611 719.717 213.063V280.747H690.851V215.349C690.851 206.812 688.713 200.41 684.437 196.141C680.313 191.873 674.357 189.739 666.568 189.739C657.709 189.739 650.837 192.711 645.949 198.657C641.062 204.449 638.619 212.605 638.619 223.124V280.747H609.753Z" fill="#406C4B"/>
<path d="M516.771 283.949C503.636 283.949 492.334 281.586 482.865 276.86C473.549 271.982 466.371 265.122 461.331 256.28C456.444 247.286 454 236.691 454 224.496V120.682H484.24V225.411C484.24 235.167 486.989 242.865 492.487 248.506C498.138 254.146 506.233 256.966 516.771 256.966C527.309 256.966 535.327 254.146 540.825 248.506C546.476 242.865 549.302 235.167 549.302 225.411V120.682H579.542V224.496C579.542 236.691 577.022 247.286 571.982 256.28C567.094 265.122 559.916 271.982 550.447 276.86C541.131 281.586 529.905 283.949 516.771 283.949Z" fill="#406C4B"/>
<defs>
<radialGradient id="paint0_radial_923_8083" cx="0" cy="0" r="1" gradientUnits="userSpaceOnUse" gradientTransform="translate(207 200) rotate(90) scale(154.829 154.829)">
<stop offset="0.4" stop-color="#E6E4C8"/>
<stop offset="1" stop-color="#CFD5B6"/>
</radialGradient>
<linearGradient id="paint1_linear_923_8083" x1="211.835" y1="83.0018" x2="211.835" y2="305.003" gradientUnits="userSpaceOnUse">
<stop stop-color="#9EA880"/>
<stop offset="0.629808" stop-color="#E6E4C8"/>
<stop offset="1" stop-color="#95A073"/>
</linearGradient>
<linearGradient id="paint2_linear_923_8083" x1="211.835" y1="83.0018" x2="211.835" y2="305.003" gradientUnits="userSpaceOnUse">
<stop stop-color="#9EA880"/>
<stop offset="0.629808" stop-color="#E6E4C8"/>
<stop offset="1" stop-color="#95A073"/>
</linearGradient>
<linearGradient id="paint3_linear_923_8083" x1="211.835" y1="83.0018" x2="211.835" y2="305.003" gradientUnits="userSpaceOnUse">
<stop stop-color="#9EA880"/>
<stop offset="0.629808" stop-color="#E6E4C8"/>
<stop offset="1" stop-color="#95A073"/>
</linearGradient>
</defs>
</svg>
