<svg width="32" height="32" viewBox="0 0 32 32" fill="none" xmlns="http://www.w3.org/2000/svg">
<path d="M32 16C32 24.8366 24.8366 32 16 32C7.16344 32 0 24.8366 0 16C0 7.16344 7.16344 0 16 0C24.8366 0 32 7.16344 32 16Z" fill="#003724"/>
<path d="M30.8338 16.0002C30.8338 24.1927 24.1924 30.8341 15.9999 30.8341C7.80738 30.8341 1.16602 24.1927 1.16602 16.0002C1.16602 7.80762 7.80738 1.16626 15.9999 1.16626C24.1924 1.16626 30.8338 7.80762 30.8338 16.0002Z" fill="url(#paint0_radial_942_8423)"/>
<path d="M13.4405 18.3294C13.4405 20.1417 14.3753 21.2156 16.0002 21.2156C17.625 21.2156 18.5376 20.1417 18.5376 18.3294V8.91016H22.6109V11.6886H25.4852V14.1796H22.6109V16.0958H25.4852V18.5868H22.6109V18.3294C22.6109 22.1553 20.0735 24.5269 16.0002 24.5269C11.9046 24.5269 9.38939 22.1553 9.38939 18.3294V18.5868H6.51514V16.0958H9.38939V14.1796H6.51514V11.6886H9.38939V8.91016H13.4405V18.3294Z" fill="#003724"/>
<defs>
<radialGradient id="paint0_radial_942_8423" cx="0" cy="0" r="1" gradientUnits="userSpaceOnUse" gradientTransform="translate(15.9999 16.0002) rotate(90) scale(14.8339 14.8339)">
<stop offset="0.4" stop-color="#FCF9D2"/>
<stop offset="1" stop-color="#CFD5B6"/>
</radialGradient>
</defs>
</svg>
