<svg width="33" height="33" viewBox="0 0 33 33" fill="none" xmlns="http://www.w3.org/2000/svg">
<circle cx="16.083" cy="16.0829" r="16" fill="#EFECCD" stroke="#003724" stroke-width="0.16575"/>
<ellipse cx="16.0834" cy="16.083" rx="14.8339" ry="14.8339" fill="url(#paint0_radial_927_8067)" stroke="#003724" stroke-width="0.455812"/>
<mask id="mask0_927_8067" style="mask-type:alpha" maskUnits="userSpaceOnUse" x="1" y="1" width="30" height="30">
<path d="M30.9173 16.083C30.9173 24.2755 24.2759 30.9169 16.0834 30.9169C7.89087 30.9169 1.24951 24.2755 1.24951 16.083C1.24951 7.89043 7.89087 1.24907 16.0834 1.24907C24.2759 1.24907 30.9173 7.89043 30.9173 16.083Z" fill="#E6E4C8"/>
</mask>
<g mask="url(#mask0_927_8067)">
<path d="M32.0869 2.19566V2.35444H0.0683696V2.19566H32.0869Z" fill="#003724"/>
<path d="M32.0869 3.05378V3.21256H0.0683594V3.05378H32.0869Z" fill="#003724"/>
<path d="M32.0869 3.91171V4.07049H0.0683594V3.91171H32.0869Z" fill="#003724"/>
<path d="M32.0869 4.76993V4.9287H0.0683594V4.76993H32.0869Z" fill="#003724"/>
<path d="M32.0869 5.62775V5.78653H0.0683594V5.62775H32.0869Z" fill="#003724"/>
<path d="M32.0869 7.34398V7.50276H0.0683594V7.34398H32.0869Z" fill="#003724"/>
<path d="M32.0869 9.06014V9.21891H0.0683594V9.06014H32.0869Z" fill="#003724"/>
<path d="M32.0869 6.48586V6.64464H0.0683594V6.48586H32.0869Z" fill="#003724"/>
<path d="M32.0869 8.20189V8.36067H0.0683594V8.20189H32.0869Z" fill="#003724"/>
<path d="M32.0869 9.91805V10.0768H0.0683594V9.91805H32.0869Z" fill="#003724"/>
<path d="M32.0869 10.7759V10.9346H0.0683594V10.7759H32.0869Z" fill="#003724"/>
<path d="M32.0869 11.6342V11.793H0.0683594V11.6342H32.0869Z" fill="#003724"/>
<path d="M32.0869 12.4921V12.6509H0.0683594V12.4921H32.0869Z" fill="#003724"/>
<path d="M32.0869 13.3498V13.5086H0.0683594V13.3498H32.0869Z" fill="#003724"/>
<path d="M32.0869 14.2082V14.367H0.0683594V14.2082H32.0869Z" fill="#003724"/>
<path d="M32.0869 15.0661V15.2248H0.0683594V15.0661H32.0869Z" fill="#003724"/>
<path d="M32.0869 15.9243V16.0831H0.0683594V15.9243H32.0869Z" fill="#003724"/>
<path d="M32.0869 16.7822V16.941H0.0683594V16.7822H32.0869Z" fill="#003724"/>
<path d="M32.0869 17.64V17.7988H0.0683594V17.64H32.0869Z" fill="#003724"/>
<path d="M32.0869 18.4983V18.6571H0.0683594V18.4983H32.0869Z" fill="#003724"/>
<path d="M32.0869 19.3564V19.5151H0.0683594V19.3564H32.0869Z" fill="#003724"/>
<path d="M32.0869 20.2141V20.3729H0.0683594V20.2141H32.0869Z" fill="#003724"/>
<path d="M32.0869 21.0724V21.2312H0.0683594V21.0724H32.0869Z" fill="#003724"/>
<path d="M32.0869 27.9366V28.0953H0.0683594V27.9366H32.0869Z" fill="#003724"/>
<path d="M32.0869 21.9304V22.0892H0.0683594V21.9304H32.0869Z" fill="#003724"/>
<path d="M32.0869 24.5044V24.6632H0.0683594V24.5044H32.0869Z" fill="#003724"/>
<path d="M32.0869 25.3622V25.521H0.0683594V25.3622H32.0869Z" fill="#003724"/>
<path d="M32.0869 26.2203V26.3791H0.0683594V26.2203H32.0869Z" fill="#003724"/>
<path d="M32.0869 22.788V22.9468H0.0683594V22.788H32.0869Z" fill="#003724"/>
<path d="M32.0869 28.7944V28.9532H0.0683594V28.7944H32.0869Z" fill="#003724"/>
<path d="M32.0869 23.6464V23.8051H0.0683594V23.6464H32.0869Z" fill="#003724"/>
<path d="M32.0869 27.0783V27.2371H0.0683594V27.0783H32.0869Z" fill="#003724"/>
<path d="M32.0869 29.6523V29.8111H0.0683594V29.6523H32.0869Z" fill="#003724"/>
<path d="M18.2012 1.44795V4.46162C20.0122 4.57575 21.4996 5.10564 22.5713 5.9626C23.6763 6.84628 24.3304 8.07047 24.4404 9.51631V9.51924C24.4823 10.2209 24.2141 10.6752 23.8096 10.944C23.4184 11.2038 22.9199 11.278 22.5098 11.278C21.969 11.278 21.4005 11.1583 20.9268 10.7595C20.4538 10.3612 20.099 9.70395 19.9424 8.67744L19.4756 6.22823C19.0584 6.13618 18.6571 6.08667 18.2012 6.07686V13.8269C20.4019 14.6224 22.2751 15.421 23.6035 16.5358C24.9652 17.6786 25.7509 19.1502 25.751 21.2644C25.751 23.046 24.843 24.5709 23.4043 25.698C22.0004 26.7977 20.0857 27.5234 17.9883 27.7575V30.6696H16.2559V27.8327C14.362 27.8002 12.8157 27.4383 11.6592 26.7692C10.465 26.0783 9.69179 25.0646 9.38574 23.7741C9.29392 23.3868 9.26705 22.9378 9.36133 22.5261C9.45617 22.1121 9.67748 21.7265 10.0879 21.4929C10.4858 21.2664 10.9668 21.2038 11.3691 21.2038C12.0138 21.2039 12.4972 21.4146 12.8545 21.7683C13.207 22.1172 13.4247 22.5935 13.5674 23.1071C13.7103 23.6217 13.7818 24.1887 13.832 24.7292C13.8786 25.2307 13.9079 25.7007 13.9561 26.1081C14.6307 26.2878 15.3602 26.3942 16.2559 26.406V18.6472C14.636 17.966 12.8739 17.0775 11.5059 15.8581C10.1056 14.61 9.10844 13.0082 9.1084 10.9294C9.1084 7.53478 12.2036 4.85687 16.4082 4.4958V1.44795H18.2012ZM17.9883 26.1647C19.5296 25.6443 20.4872 24.3261 20.4873 22.7097C20.4873 21.7268 20.3018 21.1329 19.8896 20.6647C19.5 20.2222 18.8943 19.8777 17.9883 19.4431V26.1647ZM16.4082 6.28291C14.8954 6.77276 13.9395 8.03774 13.9395 9.71162C13.9395 10.61 14.1595 11.2631 14.5947 11.7946C14.997 12.2858 15.5938 12.685 16.4082 13.073V6.28291Z" fill="#003724" stroke="#003724" stroke-width="0.3315"/>
<path d="M17.3179 0.904068V3.91774C19.1289 4.03186 20.6163 4.56175 21.688 5.41872C22.793 6.3024 23.4471 7.52659 23.5571 8.97243V8.97536C23.599 9.677 23.3308 10.1313 22.9263 10.4002C22.5351 10.6599 22.0366 10.7341 21.6265 10.7341C21.0857 10.7341 20.5172 10.6145 20.0435 10.2156C19.5705 9.81728 19.2157 9.16007 19.0591 8.13356L18.5923 5.68434C18.1751 5.59229 17.7738 5.54279 17.3179 5.53297V13.283C19.5185 14.0785 21.3918 14.8772 22.7202 15.992C24.0819 17.1347 24.8676 18.6063 24.8677 20.7205C24.8677 22.5022 23.9597 24.027 22.521 25.1541C21.1171 26.2538 19.2024 26.9795 17.105 27.2136V30.1257H15.3726V27.2888C13.4787 27.2563 11.9324 26.8945 10.7759 26.2254C9.58171 25.5344 8.80848 24.5207 8.50244 23.2302C8.41062 22.843 8.38375 22.3939 8.47803 21.9822C8.57287 21.5682 8.79418 21.1826 9.20459 20.949C9.60249 20.7226 10.0835 20.6599 10.4858 20.6599C11.1305 20.66 11.6139 20.8707 11.9712 21.2244C12.3236 21.5733 12.5414 22.0496 12.6841 22.5632C12.827 23.0779 12.8985 23.6448 12.9487 24.1853C12.9953 24.6868 13.0246 25.1568 13.0728 25.5642C13.7474 25.7439 14.4769 25.8504 15.3726 25.8621V18.1033C13.7527 17.4221 11.9906 16.5336 10.6226 15.3142C9.22225 14.0661 8.22514 12.4643 8.2251 10.3855C8.2251 6.9909 11.3203 4.31299 15.5249 3.95192V0.904068H17.3179ZM17.105 25.6209C18.6463 25.1004 19.6039 23.7822 19.604 22.1658C19.604 21.1829 19.4185 20.589 19.0063 20.1209C18.6167 19.6783 18.011 19.3338 17.105 18.8992V25.6209ZM15.5249 5.73903C14.0121 6.22888 13.0562 7.49385 13.0562 9.16774C13.0562 10.0661 13.2762 10.7193 13.7114 11.2507C14.1137 11.7419 14.7105 12.1411 15.5249 12.5291V5.73903Z" fill="#EFECCD" stroke="#003724" stroke-width="0.3315"/>
<path d="M15.2894 4.87358C13.3925 5.47023 12.1615 7.08249 12.1615 9.16809C12.1615 14.2574 19.1453 14.1593 22.1452 16.6769C23.3101 17.6545 23.9733 18.8783 23.9733 20.7212C23.9733 22.1689 23.2426 23.4527 21.9689 24.4504C20.9665 25.2356 19.6439 25.8266 18.1479 26.1432C20.3248 24.9703 21.439 21.5321 19.6767 19.5305C18.7064 18.4284 17.1268 17.9196 15.8183 17.3226C12.8593 16.0897 9.11915 14.0704 9.11914 10.3857C9.11914 7.69361 11.5425 5.30832 15.2894 4.87358Z" fill="url(#paint1_linear_927_8067)"/>
<path d="M10.4852 21.5548C11.263 21.5548 11.63 22.1114 11.822 22.8029C12.1009 23.8072 12.076 24.8646 12.2113 25.8915C10.7673 25.3746 9.4542 24.292 9.29542 22.6814C9.29542 21.9583 9.92743 21.5548 10.4852 21.5548Z" fill="url(#paint2_linear_927_8067)"/>
<path d="M19.4116 5.20872C20.7714 5.6628 21.9836 6.5876 22.4545 7.98555C22.7165 8.76355 22.7401 9.83984 21.626 9.83986C19.6676 9.83986 19.6718 6.57491 19.4116 5.20872Z" fill="url(#paint3_linear_927_8067)"/>
<path d="M15.2894 4.87358C13.3925 5.47023 12.1615 7.08249 12.1615 9.16809C12.1615 14.2574 19.1453 14.1593 22.1452 16.6769C23.3101 17.6545 23.9733 18.8783 23.9733 20.7212C23.9733 22.1689 23.2426 23.4527 21.9689 24.4504C20.9665 25.2356 19.6439 25.8266 18.1479 26.1432C20.3248 24.9703 21.439 21.5321 19.6767 19.5305C18.7064 18.4284 17.1268 17.9196 15.8183 17.3226C12.8593 16.0897 9.11915 14.0704 9.11914 10.3857C9.11914 7.69361 11.5425 5.30832 15.2894 4.87358Z" stroke="#003724" stroke-width="0.124312" stroke-linejoin="round"/>
<path d="M10.4852 21.5548C11.263 21.5548 11.63 22.1114 11.822 22.8029C12.1009 23.8072 12.076 24.8646 12.2113 25.8915C10.7673 25.3746 9.4542 24.292 9.29542 22.6814C9.29542 21.9583 9.92743 21.5548 10.4852 21.5548Z" stroke="#003724" stroke-width="0.124312" stroke-linejoin="round"/>
<path d="M19.4116 5.20872C20.7714 5.6628 21.9836 6.5876 22.4545 7.98555C22.7165 8.76355 22.7401 9.83984 21.626 9.83986C19.6676 9.83986 19.6718 6.57491 19.4116 5.20872Z" stroke="#003724" stroke-width="0.124312" stroke-linejoin="round"/>
</g>
<defs>
<radialGradient id="paint0_radial_927_8067" cx="0" cy="0" r="1" gradientUnits="userSpaceOnUse" gradientTransform="translate(16.0834 16.083) rotate(90) scale(14.8339 14.8339)">
<stop offset="0.4" stop-color="#E6E4C8"/>
<stop offset="1" stop-color="#CFD5B6"/>
</radialGradient>
<linearGradient id="paint1_linear_927_8067" x1="16.5462" y1="4.87358" x2="16.5462" y2="26.1432" gradientUnits="userSpaceOnUse">
<stop stop-color="#9EA880"/>
<stop offset="0.629808" stop-color="#E6E4C8"/>
<stop offset="1" stop-color="#95A073"/>
</linearGradient>
<linearGradient id="paint2_linear_927_8067" x1="16.5462" y1="4.87358" x2="16.5462" y2="26.1432" gradientUnits="userSpaceOnUse">
<stop stop-color="#9EA880"/>
<stop offset="0.629808" stop-color="#E6E4C8"/>
<stop offset="1" stop-color="#95A073"/>
</linearGradient>
<linearGradient id="paint3_linear_927_8067" x1="16.5462" y1="4.87358" x2="16.5462" y2="26.1432" gradientUnits="userSpaceOnUse">
<stop stop-color="#9EA880"/>
<stop offset="0.629808" stop-color="#E6E4C8"/>
<stop offset="1" stop-color="#95A073"/>
</linearGradient>
</defs>
</svg>
