<svg width="1638" height="400" viewBox="0 0 1638 400" fill="none" xmlns="http://www.w3.org/2000/svg">
<path d="M1402.04 280.747V254.222H1423.12V147.207H1402.04V120.682H1468.02C1489.56 120.682 1505.9 126.17 1517.05 137.146C1528.35 147.969 1534 164.128 1534 185.623V215.807C1534 237.301 1528.35 253.536 1517.05 264.512C1505.9 275.336 1489.56 280.747 1468.02 280.747H1402.04ZM1453.36 253.308H1468.48C1480.7 253.308 1489.63 250.106 1495.28 243.704C1500.93 237.301 1503.76 228.307 1503.76 216.721V184.708C1503.76 172.97 1500.93 163.976 1495.28 157.726C1489.63 151.323 1480.7 148.122 1468.48 148.122H1453.36V253.308Z" fill="#003724"/>
<path d="M1324.26 283.949C1311.89 283.949 1300.97 281.738 1291.5 277.317C1282.03 272.897 1274.62 266.57 1269.28 258.338C1263.93 250.106 1261.26 240.197 1261.26 228.612V222.209H1291.04V228.612C1291.04 238.216 1294.02 245.457 1299.98 250.335C1305.93 255.061 1314.03 257.424 1324.26 257.424C1334.64 257.424 1342.36 255.366 1347.4 251.25C1352.59 247.134 1355.19 241.874 1355.19 235.472C1355.19 231.051 1353.89 227.468 1351.29 224.724C1348.85 221.98 1345.18 219.77 1340.3 218.093C1335.56 216.264 1329.76 214.587 1322.88 213.062L1317.62 211.919C1306.62 209.48 1297.15 206.431 1289.21 202.773C1281.42 198.961 1275.39 194.007 1271.11 187.909C1266.99 181.812 1264.92 173.884 1264.92 164.128C1264.92 154.372 1267.22 146.064 1271.8 139.204C1276.53 132.191 1283.1 126.856 1291.5 123.197C1300.05 119.386 1310.06 117.48 1321.51 117.48C1332.96 117.48 1343.12 119.462 1351.98 123.426C1360.99 127.237 1368.02 133.03 1373.06 140.804C1378.25 148.426 1380.84 158.03 1380.84 169.616V176.476H1351.06V169.616C1351.06 163.518 1349.84 158.64 1347.4 154.982C1345.11 151.17 1341.75 148.426 1337.32 146.75C1332.89 144.92 1327.62 144.006 1321.51 144.006C1312.35 144.006 1305.55 145.759 1301.12 149.265C1296.84 152.619 1294.71 157.268 1294.71 163.213C1294.71 167.177 1295.7 170.531 1297.68 173.275C1299.82 176.019 1302.95 178.305 1307.08 180.135C1311.2 181.964 1316.47 183.565 1322.88 184.937L1328.15 186.08C1339.61 188.519 1349.54 191.644 1357.94 195.455C1366.49 199.266 1373.13 204.297 1377.87 210.547C1382.6 216.797 1384.97 224.801 1384.97 234.557C1384.97 244.313 1382.45 252.926 1377.41 260.396C1372.52 267.713 1365.5 273.506 1356.33 277.775C1347.32 281.891 1336.63 283.949 1324.26 283.949Z" fill="#003724"/>
<path d="M1176.52 283.949C1163.39 283.949 1152.09 281.586 1142.62 276.86C1133.3 271.982 1126.12 265.122 1121.08 256.28C1116.2 247.286 1113.75 236.691 1113.75 224.496V120.682H1143.99V225.41C1143.99 235.167 1146.74 242.865 1152.24 248.506C1157.89 254.146 1165.99 256.966 1176.52 256.966C1187.06 256.966 1195.08 254.146 1200.58 248.506C1206.23 242.865 1209.06 235.167 1209.06 225.41V120.682H1239.3V224.496C1239.3 236.691 1236.78 247.286 1231.74 256.28C1226.85 265.122 1219.67 271.982 1210.2 276.86C1200.88 281.586 1189.66 283.949 1176.52 283.949Z" fill="#003724"/>
<path d="M928.622 326.48V301.327H990.476C994.753 301.327 996.891 299.041 996.891 294.467V265.884H992.767C991.545 268.476 989.636 271.067 987.04 273.659C984.444 276.25 980.931 278.385 976.502 280.061C972.073 281.738 966.422 282.577 959.549 282.577C950.691 282.577 942.902 280.595 936.182 276.631C929.615 272.515 924.498 266.875 920.833 259.71C917.167 252.545 915.335 244.313 915.335 235.014V167.329H944.2V232.728C944.2 241.265 946.262 247.667 950.386 251.936C954.662 256.204 960.695 258.338 968.484 258.338C977.342 258.338 984.215 255.442 989.102 249.649C993.989 243.704 996.433 235.472 996.433 224.953V167.329H1025.3V300.87C1025.3 308.645 1023.01 314.819 1018.43 319.392C1013.84 324.118 1007.73 326.48 1000.1 326.48H928.622Z" fill="#003724"/>
<path d="M855.3 280.747C847.817 280.747 841.708 278.461 836.973 273.887C832.391 269.162 830.1 262.911 830.1 255.137V191.111H801.693V167.329H830.1V132.115H858.966V167.329H890.122V191.111H858.966V250.106C858.966 254.68 861.104 256.966 865.38 256.966H887.373V280.747H855.3Z" fill="#003724"/>
<path d="M750.921 280.747V167.329H779.787V280.747H750.921ZM765.354 154.067C760.161 154.067 755.732 152.39 752.067 149.036C748.554 145.682 746.798 141.262 746.798 135.774C746.798 130.286 748.554 125.865 752.067 122.511C755.732 119.157 760.161 117.48 765.354 117.48C770.699 117.48 775.129 119.157 778.641 122.511C782.154 125.865 783.91 130.286 783.91 135.774C783.91 141.262 782.154 145.682 778.641 149.036C775.129 152.39 770.699 154.067 765.354 154.067Z" fill="#003724"/>
<path d="M609.753 280.747V167.329H638.16V182.193H642.284C644.117 178.229 647.553 174.494 652.593 170.988C657.633 167.329 665.269 165.5 675.502 165.5C684.36 165.5 692.073 167.558 698.64 171.674C705.36 175.638 710.553 181.202 714.218 188.367C717.884 195.379 719.717 203.611 719.717 213.063V280.747H690.851V215.349C690.851 206.812 688.713 200.41 684.437 196.141C680.313 191.873 674.357 189.739 666.568 189.739C657.709 189.739 650.837 192.711 645.949 198.657C641.062 204.449 638.619 212.605 638.619 223.124V280.747H609.753Z" fill="#003724"/>
<path d="M516.771 283.949C503.636 283.949 492.334 281.586 482.865 276.86C473.549 271.982 466.371 265.122 461.331 256.28C456.444 247.286 454 236.691 454 224.496V120.682H484.24V225.41C484.24 235.167 486.989 242.865 492.487 248.506C498.138 254.146 506.233 256.966 516.771 256.966C527.309 256.966 535.327 254.146 540.825 248.506C546.476 242.865 549.302 235.167 549.302 225.41V120.682H579.542V224.496C579.542 236.691 577.022 247.286 571.982 256.28C567.094 265.122 559.916 271.982 550.447 276.86C541.131 281.586 529.905 283.949 516.771 283.949Z" fill="#003724"/>
<path d="M374 200C374 292.232 299.232 367 207 367C114.768 367 40 292.232 40 200C40 107.768 114.768 33 207 33C299.232 33 374 107.768 374 200Z" fill="#003724"/>
<path d="M361 200C361 285.052 292.052 354 207 354C121.948 354 53 285.052 53 200C53 114.948 121.948 46 207 46C292.052 46 361 114.948 361 200Z" fill="url(#paint0_radial_942_8380)"/>
<path d="M180.283 224.313C180.283 243.229 190.04 254.438 207 254.438C223.96 254.438 233.484 243.229 233.484 224.313V126H276V155H306V181H276V201H306V227H276V224.313C276 264.246 249.515 289 207 289C164.253 289 138 264.246 138 224.313V227H108V201H138V181H108V155H138V126H180.283V224.313Z" fill="#003724"/>
<defs>
<radialGradient id="paint0_radial_942_8380" cx="0" cy="0" r="1" gradientUnits="userSpaceOnUse" gradientTransform="translate(207 200) rotate(90) scale(154)">
<stop offset="0.4" stop-color="#FCF9D2"/>
<stop offset="1" stop-color="#CFD5B6"/>
</radialGradient>
</defs>
</svg>
